<?xml version="1.0" encoding="iso-8859-1"?>
<!-- Generator: Adobe Illustrator 19.0.0, SVG Export Plug-In . SVG Version: 6.00 Build 0)  -->
<svg version="1.1" id="Capa_1" xmlns="http://www.w3.org/2000/svg" xmlns:xlink="http://www.w3.org/1999/xlink" x="0px" y="0px"
	 viewBox="0 0 512 512" style="enable-background:new 0 0 512 512;" xml:space="preserve">
<g>
	<g>
		<path d="M512,256.001c0-68.38-26.629-132.667-74.981-181.019S324.38,0.001,256,0.001S123.333,26.629,74.981,74.981
			S0,187.62,0,256.001S26.629,388.667,74.981,437.02c48.352,48.352,112.638,74.98,181.019,74.98
			c58.729,0,115.739-20.245,161.204-57.123c4.397,2.6,9.52,4.098,14.988,4.098c16.292,0,29.546-13.254,29.546-29.546
			c0-5.637-1.589-10.908-4.338-15.393C492.649,369.14,512,313.269,512,256.001z M426.409,85.592
			c43.745,43.744,68.589,101.347,70.459,162.907h-35.281c-2.028-56.246-26.736-106.802-65.24-142.784l23.184-26.717
			C421.856,81.15,424.155,83.338,426.409,85.592z M339.626,248.498h-39.485c-1.329-7.847-4.697-15.009-9.553-20.91l25.857-29.797
			C329.37,211.207,337.881,228.89,339.626,248.498z M326.32,186.412l27.078-31.203c20.562,19.876,34.567,45.525,40.098,73.442
			c-8.867,3.263-15.743,10.664-18.291,19.848H354.7C352.883,224.374,342.379,202.639,326.32,186.412z M279.261,217.747
			c-4.746-2.897-10.074-4.925-15.759-5.889v-39.484c15.45,1.375,29.702,6.949,41.617,15.574L279.261,217.747z M300.142,263.503
			h39.485c-3.589,40.328-35.795,72.534-76.124,76.123v-39.484C282.193,296.975,296.974,282.194,300.142,263.503z M354.701,263.503
			h20.296c2.356,9.492,9.31,17.186,18.354,20.569c-6.127,30.088-22.11,57.512-45.517,77.828
			c-23.569,20.458-53.269,32.398-84.332,34.061V354.7C312.113,351.04,351.04,312.114,354.701,263.503z M389.13,256.389
			c0-7.251,5.341-13.261,12.292-14.348c0.23,0.021,0.462,0.033,0.697,0.033c0.359,0,0.723-0.026,1.089-0.079
			c0.233-0.034,0.461-0.081,0.686-0.135c7.915,0.12,14.319,6.587,14.319,14.529c-0.001,7.943-6.405,14.41-14.32,14.53
			c-0.248-0.064-0.501-0.116-0.759-0.155c-0.615-0.092-1.222-0.098-1.817-0.042C394.417,269.591,389.13,263.604,389.13,256.389z
			 M408.506,227.246c-5.963-31.763-21.809-60.955-45.259-83.389l23.264-26.809c35.344,33.216,58.05,79.72,60.062,131.451h-14.434
			C429.097,237.542,419.892,229.13,408.506,227.246z M263.502,15.133c53.364,1.621,103.75,20.507,144.717,54.005l-23.2,26.735
			c-33.497-27.042-75.612-43.804-121.518-45.458V15.133z M263.501,65.429c42.151,1.639,80.831,17.018,111.682,41.779l-23.269,26.815
			c-25.309-19.915-56.207-31.454-88.413-33.01V65.429z M263.501,116.04c28.588,1.529,56.003,11.766,78.565,29.331l-27.072,31.197
			c-14.602-10.873-32.291-17.822-51.493-19.268V116.04z M191.655,122.835c1.611,3.816,6.017,5.602,9.83,3.99
			c14.971-6.326,30.753-9.943,47.013-10.793v41.269c-48.611,3.66-87.539,42.586-91.199,91.198h-41.255
			c2.315-43.206,24.511-83.129,60.393-107.914c3.409-2.357,4.264-7.029,1.909-10.438c-2.355-3.408-7.027-4.265-10.437-1.909
			c-39.937,27.586-64.554,72.121-66.884,120.259H65.427c1.174-30.017,9.37-59.263,23.945-85.371
			c2.981,1.014,6.172,1.573,9.492,1.573c16.291,0,29.545-13.254,29.545-29.546c0-6.028-1.818-11.636-4.93-16.315
			c33.946-32.827,77.976-51.607,125.019-53.415v35.582c-18.278,0.863-36.026,4.885-52.853,11.997
			C191.829,114.617,190.042,119.019,191.655,122.835z M248.498,172.375v39.484c-18.691,3.168-33.473,17.948-36.64,36.64h-39.485
			C175.964,208.171,208.169,175.964,248.498,172.375z M84.322,135.155c0-8.018,6.523-14.541,14.541-14.541
			c8.018,0,14.54,6.523,14.54,14.541s-6.523,14.541-14.54,14.541S84.322,143.173,84.322,135.155z M85.59,85.591
			c43.745-43.745,101.347-68.588,162.907-70.458v35.279c-51.337,1.828-99.379,22.39-136.245,58.42
			c-4.023-2.055-8.572-3.222-13.39-3.222c-16.292,0-29.546,13.254-29.546,29.546c0,7.543,2.846,14.432,7.515,19.66
			c-16.174,28.592-25.235,60.718-26.431,93.683H15.131C17.002,186.938,41.845,129.335,85.59,85.591z M248.498,446.571
			c-30.805-1.21-60.924-9.837-87.538-25.163c-27.922-16.08-51.51-39.151-68.212-66.72c-2.149-3.544-6.762-4.674-10.305-2.529
			c-3.543,2.148-4.675,6.76-2.529,10.304c18.012,29.729,43.448,54.608,73.558,71.947c28.888,16.636,61.593,25.964,95.026,27.181
			v35.277c-61.56-1.871-119.162-26.714-162.907-70.459c-43.746-43.746-68.589-101.349-70.46-162.908H50.41
			c0.875,24.592,6.042,48.493,15.424,71.15c1.196,2.89,3.99,4.634,6.935,4.634c0.956,0,1.93-0.184,2.867-0.573
			c3.828-1.584,5.647-5.973,4.062-9.801c-8.625-20.828-13.406-42.8-14.274-65.41h35.605c1.134,23.54,7.578,46.486,18.871,67.069
			c-4.059,5.06-6.496,11.476-6.496,18.453c0,16.292,13.254,29.546,29.546,29.546c4.942,0,9.601-1.225,13.699-3.38
			c25.939,21.642,58.114,34.178,91.85,35.8V446.571z M128.408,349.025c0-8.018,6.524-14.541,14.541-14.541
			c8.018,0,14.54,6.523,14.54,14.541c0,8.018-6.523,14.541-14.54,14.541C134.931,363.566,128.408,357.043,128.408,349.025z
			 M248.498,395.962c-29.538-1.572-57.718-12.403-80.683-31.012c2.956-4.599,4.679-10.063,4.679-15.926
			c-0.001-16.291-13.255-29.545-29.546-29.545c-3.832,0-7.492,0.741-10.854,2.075c-9.485-17.908-14.96-37.721-16.045-58.051h41.249
			c3.66,48.611,42.586,87.538,91.199,91.198V395.962z M248.498,339.626c-40.328-3.59-72.534-35.795-76.124-76.123h39.485
			c3.167,18.691,17.948,33.473,36.64,36.64V339.626z M226.221,256.001c0-16.42,13.359-29.779,29.779-29.779
			s29.779,13.358,29.779,29.779c0,16.421-13.358,29.778-29.779,29.778C239.579,285.778,226.221,272.42,226.221,256.001z
			 M432.192,443.971c-8.018,0-14.541-6.523-14.541-14.541c0-8.018,6.524-14.541,14.541-14.541c3.599,0,6.891,1.322,9.433,3.496
			c0.377,0.535,0.823,1.032,1.352,1.469c0.13,0.107,0.266,0.201,0.4,0.298c2.094,2.52,3.356,5.754,3.356,9.278
			C446.734,437.448,440.21,443.971,432.192,443.971z M446.506,403.595c-4.243-2.361-9.123-3.71-14.314-3.71
			c-16.292,0-29.546,13.254-29.546,29.546c0,5.357,1.44,10.38,3.942,14.716c-40.658,32.564-90.958,51.091-143.087,52.717v-35.262
			c36.482-1.317,71.801-12.231,102.585-31.763c32.002-20.308,57.769-48.974,74.512-82.9c1.833-3.715,0.308-8.214-3.407-10.048
			c-3.717-1.833-8.213-0.307-10.048,3.407c-15.526,31.457-39.418,58.039-69.096,76.872c-28.375,18.005-60.917,28.104-94.546,29.415
			v-35.595c34.678-1.676,67.869-14.93,94.168-37.757c26.295-22.824,44.131-53.762,50.684-87.671
			c11.725-1.876,21.167-10.673,23.992-22.057h14.242c-0.66,17.072-3.575,33.878-8.694,50.063c-1.248,3.951,0.941,8.166,4.892,9.415
			c0.752,0.238,1.514,0.351,2.264,0.351c3.185,0,6.141-2.045,7.151-5.243c5.58-17.648,8.731-35.977,9.399-54.587h35.264
			C495.272,314.281,477.58,363.506,446.506,403.595z"/>
	</g>
</g>
<g>
</g>
<g>
</g>
<g>
</g>
<g>
</g>
<g>
</g>
<g>
</g>
<g>
</g>
<g>
</g>
<g>
</g>
<g>
</g>
<g>
</g>
<g>
</g>
<g>
</g>
<g>
</g>
<g>
</g>
</svg>
