<?xml version="1.0" encoding="iso-8859-1"?>
<!-- Generator: Adobe Illustrator 19.0.0, SVG Export Plug-In . SVG Version: 6.00 Build 0)  -->
<svg version="1.1" id="Capa_1" xmlns="http://www.w3.org/2000/svg" xmlns:xlink="http://www.w3.org/1999/xlink" x="0px" y="0px"
	 viewBox="0 0 512 512" style="enable-background:new 0 0 512 512;" xml:space="preserve">
<g>
	<g>
		<path d="M295.373,341.946c-4.2,0-7.604,3.405-7.604,7.604V423.9c0,4.199,3.404,7.604,7.604,7.604c4.2,0,7.604-3.405,7.604-7.604
			V349.55C302.977,345.351,299.573,341.946,295.373,341.946z"/>
	</g>
</g>
<g>
	<g>
		<path d="M292.364,45.404C288.928,19.519,266.623,0,240.481,0s-48.446,19.519-51.884,45.403c-0.554,4.164,2.373,7.986,6.536,8.54
			c0.34,0.045,0.677,0.067,1.011,0.067c3.754,0,7.02-2.78,7.528-6.603c2.438-18.356,18.263-32.198,36.809-32.198
			c18.547,0,34.37,13.842,36.808,32.197c0.553,4.163,4.373,7.089,8.539,6.537C289.99,53.39,292.917,49.567,292.364,45.404z"/>
	</g>
</g>
<g>
	<g>
		<path d="M411.824,184.797H198.949c-4.2,0-7.604,3.405-7.604,7.604s3.404,7.604,7.604,7.604h178.377l-5.672,19.263H109.308
			l-5.672-19.263H173.6c4.2,0,7.604-3.405,7.604-7.604s-3.404-7.604-7.604-7.604H69.139c-4.2,0-7.604,3.405-7.604,7.604
			s3.404,7.604,7.604,7.604h18.645l37.198,126.345c0.952,3.235,3.922,5.457,7.294,5.457h216.41c3.372,0,6.342-2.221,7.294-5.457
			l37.198-126.345h18.645c4.2,0,7.604-3.405,7.604-7.604C419.426,188.202,416.023,184.797,411.824,184.797z M286.178,234.476h44.012
			l-10.161,47.651h-37.817L286.178,234.476z M270.917,234.476l-3.966,47.651h-52.94l-3.965-47.651H270.917z M194.785,234.476
			l3.965,47.651h-37.817l-10.16-47.651H194.785z M127.814,282.128l-14.029-47.651h21.438l10.16,47.651H127.814z M342.998,316.599
			H137.964l-5.672-19.263h216.377L342.998,316.599z M353.146,282.128h-17.569l10.161-47.651h21.437L353.146,282.128z"/>
	</g>
</g>
<g>
	<g>
		<path d="M373.297,61.106h-21.973c-0.006,0-0.011-0.001-0.017-0.001h-221.65c-0.006,0-0.011,0.001-0.017,0.001h-21.972
			c-4.2,0-7.604,3.405-7.604,7.604s3.403,7.604,7.603,7.604h15.975l21.883,92.49c0.967,4.087,5.062,6.614,9.15,5.649
			c2.61-0.617,4.578-2.512,5.413-4.865h160.787c0.835,2.351,2.803,4.247,5.413,4.865c0.588,0.139,1.177,0.206,1.756,0.206
			c3.445,0,6.567-2.357,7.394-5.855l21.883-92.49h15.976c4.2,0,7.604-3.405,7.604-7.604S377.497,61.106,373.297,61.106z
			 M157.739,154.381l-11.755-49.679h33.482l6.132,49.679H157.739z M280.04,154.381h-79.12l-6.132-49.679h91.383L280.04,154.381z
			 M323.221,154.381h-27.859l6.133-49.679h33.48L323.221,154.381z M338.574,89.494H142.387l-3.119-13.18h202.424L338.574,89.494z"/>
	</g>
</g>
<g>
	<g>
		<path d="M313.567,496.792h-10.591v-47.545c0-4.199-3.404-7.604-7.604-7.604c-4.2,0-7.604,3.405-7.604,7.604v47.545h-94.574V349.55
			c0-4.199-3.404-7.604-7.604-7.604s-7.604,3.405-7.604,7.604v147.242h-10.591c-4.2,0-7.604,3.405-7.604,7.604
			s3.404,7.604,7.604,7.604h146.172c4.2,0,7.604-3.405,7.604-7.604S317.767,496.792,313.567,496.792z"/>
	</g>
</g>
<g>
	<g>
		<path d="M449.966,108.116c-1.493-3.926-5.891-5.896-9.81-4.404l-15.803,6.011l-13.871-11.274
			c-3.261-2.65-8.049-2.153-10.697,1.104c-2.648,3.259-2.154,8.048,1.105,10.697l7.038,5.721l-11.195,4.258l-6.58-5.033
			c-3.338-2.552-8.108-1.915-10.66,1.419c-2.552,3.336-1.916,8.108,1.419,10.66l9.945,7.607c1.346,1.03,2.975,1.564,4.621,1.564
			c0.909,0,1.826-0.163,2.702-0.497l13.497-5.134l-2.178,7.965c-1.108,4.05,1.278,8.233,5.329,9.341
			c0.671,0.183,1.346,0.272,2.01,0.272c3.342,0,6.406-2.22,7.329-5.601l5.106-18.669l16.288-6.196
			C449.487,116.434,451.459,112.041,449.966,108.116z"/>
	</g>
</g>
<g>
</g>
<g>
</g>
<g>
</g>
<g>
</g>
<g>
</g>
<g>
</g>
<g>
</g>
<g>
</g>
<g>
</g>
<g>
</g>
<g>
</g>
<g>
</g>
<g>
</g>
<g>
</g>
<g>
</g>
</svg>
