<?xml version='1.0' encoding='utf-8'?>
<!DOCTYPE svg PUBLIC '-//W3C//DTD SVG 1.1//EN' 'http://www.w3.org/Graphics/SVG/1.1/DTD/svg11.dtd'>
<svg version="1.1" xmlns="http://www.w3.org/2000/svg" viewBox="0 0 512 512" xmlns:xlink="http://www.w3.org/1999/xlink" enable-background="new 0 0 512 512">
  <g>
    <g>
      <path d="m345.8,139.2c0-50-39.7-89.7-89.8-89.7s-89.8,40.7-89.8,89.7c0,50 40.7,89.7 89.8,89.7s89.8-39.6 89.8-89.7zm-158.7,1.1c0-38.6 31.3-68.8 68.9-68.8s68.9,30.2 68.9,68.8c0,38.6-30.3,68.8-68.9,68.8s-68.9-30.2-68.9-68.8z"/>
      <path d="m500.3,487.4l-80.4-229.4c-1-4.2-5.2-7.3-9.4-7.3h-66.3c22.1-42 40.2-84.7 40.2-111.6 0-70.8-57.4-128.1-128.4-128.1s-128.4,57.3-128.4,129.3c0,26.7 17.9,68.8 39.8,110.5h-65.9c-4.2,0-8.4,3.1-9.4,7.3l-80.4,229.3c-1,3.1-1,6.3 1,9.4 2.1,2.1 5.2,4.2 8.4,4.2h469.8c3.1,0 6.3-2.1 8.4-4.2 2.1-3.1 2.1-6.2 1-9.4zm-351.8-348.2c0-59.4 48-107.4 107.5-107.4s107.5,48 107.5,107.4c0,58.4-97.5,202.7-107.5,217.9-9.7-15.3-107.5-150.9-107.5-217.9zm-112.8,340.9l73.1-208.5h69.9c31.4,56.2 77.3,123 77.3,123s44.9-65.7 77.3-123h70l73.1,208.5h-440.7z"/>
    </g>
  </g>
</svg>
