<?xml version="1.0" encoding="iso-8859-1"?>
<!-- Generator: Adobe Illustrator 19.0.0, SVG Export Plug-In . SVG Version: 6.00 Build 0)  -->
<svg version="1.1" id="Capa_1" xmlns="http://www.w3.org/2000/svg" xmlns:xlink="http://www.w3.org/1999/xlink" x="0px" y="0px"
	 viewBox="0 0 512 512" style="enable-background:new 0 0 512 512;" xml:space="preserve">
<g>
	<g>
		<path d="M502,116c-16.542,0-30-13.458-30-30c0-5.523-4.477-10-10-10H50c-5.523,0-10,4.477-10,10c0,16.542-13.458,30-30,30
			c-5.523,0-10,4.477-10,10v260c0,5.523,4.477,10,10,10c16.542,0,30,13.458,30,30c0,5.523,4.477,10,10,10h412
			c5.523,0,10-4.477,10-10c0-16.542,13.458-30,30-30c5.523,0,10-4.477,10-10V126C512,120.477,507.523,116,502,116z M492,377.005
			c-19.561,3.987-35.008,19.435-38.996,38.996H360v-30c0-5.523-4.477-10-10-10s-10,4.477-10,10v30H58.996
			C55.008,396.439,39.561,380.992,20,377.004V134.996C39.561,131.008,55.008,115.561,58.996,96H340v30c0,5.523,4.477,10,10,10
			s10-4.477,10-10V96h93.004c3.987,19.561,19.435,35.008,38.996,38.996V377.005z"/>
	</g>
</g>
<g>
	<g>
		<path d="M318.321,250.453c-14.267-21.406-39.087-33.977-64.861-32.8l-26.388,1.373l-48.575-78.298
			C176.674,137.789,173.46,136,170,136h-20c-3.005,0-5.852,1.352-7.75,3.681c-1.899,2.33-2.65,5.389-2.044,8.333l15.367,74.746
			c-40.312,2.154-38.345,1.886-41.932,2.338l-25.566-34.997C86.192,187.524,83.192,186,80,186H50c-3.313,0-6.41,1.64-8.271,4.38
			s-2.246,6.224-1.025,9.303C47.978,218.045,59.288,246.786,62.74,256c-3.452,9.214-14.762,37.955-22.037,56.317
			c-1.22,3.08-0.836,6.563,1.025,9.303C43.59,324.36,46.688,326,50,326h30c3.192,0,6.192-1.524,8.075-4.101l25.565-34.996
			c3.552,0.448,1.524,0.179,41.932,2.337l-15.367,74.746c-0.605,2.944,0.146,6.003,2.044,8.333c1.899,2.329,4.745,3.681,7.75,3.681
			h20c3.46,0,6.674-1.789,8.498-4.729l48.575-78.298l26.452,1.376c25.713,1.168,50.53-11.397,64.797-32.804
			C320.559,258.187,320.559,253.812,318.321,250.453z M254.499,274.374l-32.29-1.68c-3.641-0.195-7.096,1.617-9.017,4.714
			L164.436,356h-2.17l15.24-74.126c0.587-2.854-0.101-5.823-1.882-8.128c-1.782-2.306-4.481-3.72-7.392-3.872
			c-53.94-3.094-47.668-1.972-56.779-3.557l-0.574-0.1c-3.748-0.652-7.54,0.882-9.783,3.954L74.921,306H64.713
			c18.617-47.079,18.617-47.706,18.617-50s0-2.921-18.617-50h10.208l26.174,35.829c2.244,3.071,6.039,4.607,9.783,3.954l0.574-0.1
			c9.108-1.584,2.955-0.47,56.779-3.557c2.91-0.152,5.609-1.565,7.392-3.872c1.782-2.306,2.469-5.274,1.882-8.128L162.265,156h2.17
			l48.757,78.592c1.921,3.097,5.372,4.904,9.017,4.714l32.226-1.676c16.409-0.752,32.304,6.174,42.993,18.37
			C286.74,268.196,270.834,275.113,254.499,274.374z"/>
	</g>
</g>
<g>
	<g>
		<path d="M350,156c-5.523,0-10,4.477-10,10v20c0,5.523,4.477,10,10,10s10-4.477,10-10v-20C360,160.477,355.523,156,350,156z"/>
	</g>
</g>
<g>
	<g>
		<path d="M350,236c-5.523,0-10,4.477-10,10v20c0,5.523,4.477,10,10,10s10-4.477,10-10v-20C360,240.477,355.523,236,350,236z"/>
	</g>
</g>
<g>
	<g>
		<path d="M350,316c-5.523,0-10,4.477-10,10v20c0,5.523,4.477,10,10,10s10-4.477,10-10v-20C360,320.477,355.523,316,350,316z"/>
	</g>
</g>
<g>
	<g>
		<path d="M462,156h-72c-5.523,0-10,4.477-10,10s4.477,10,10,10h72c5.523,0,10-4.477,10-10S467.523,156,462,156z"/>
	</g>
</g>
<g>
	<g>
		<path d="M462,216h-72c-5.523,0-10,4.477-10,10s4.477,10,10,10h72c5.523,0,10-4.477,10-10S467.523,216,462,216z"/>
	</g>
</g>
<g>
	<g>
		<path d="M462,276h-72c-5.523,0-10,4.477-10,10s4.477,10,10,10h72c5.523,0,10-4.477,10-10S467.523,276,462,276z"/>
	</g>
</g>
<g>
	<g>
		<path d="M462,336h-72c-5.523,0-10,4.477-10,10s4.477,10,10,10h72c5.523,0,10-4.477,10-10S467.523,336,462,336z"/>
	</g>
</g>
<g>
</g>
<g>
</g>
<g>
</g>
<g>
</g>
<g>
</g>
<g>
</g>
<g>
</g>
<g>
</g>
<g>
</g>
<g>
</g>
<g>
</g>
<g>
</g>
<g>
</g>
<g>
</g>
<g>
</g>
</svg>
