<svg id="Layer_1" enable-background="new 0 0 512 512" height="512" viewBox="0 0 512 512" width="512" xmlns="http://www.w3.org/2000/svg"><path d="m428.53 83.244c-51.868 10.373-106.479 3.058-153.784-20.594-68.956-34.479-149.596-37.818-221.239-9.161l-53.507 21.402v392.313l64.648-25.861c63.692-25.477 135.382-22.511 196.682 8.139 53.329 26.665 114.803 34.835 173.04 23.188l77.63-15.289v-390.576zm53.47 229.469-53.47 10.531c-51.868 10.373-106.479 3.058-153.784-20.594-68.956-34.479-149.598-37.817-221.239-9.161l-23.507 9.402v-87.689l34.648-13.859c63.692-25.478 135.383-22.51 196.682 8.139 53.329 26.665 114.803 34.835 173.04 23.188l47.63-9.381zm-417.352-231.37c63.692-25.478 135.383-22.51 196.682 8.139 53.243 26.622 114.714 34.853 173.04 23.188l47.63-9.38v89.424l-53.47 10.531c-51.868 10.373-106.479 3.058-153.784-20.594-68.956-34.479-149.596-37.818-221.239-9.161l-23.507 9.401v-87.689zm363.882 361.901c-51.868 10.373-106.479 3.059-153.784-20.594-68.177-34.089-148.802-38.136-221.24-9.161l-23.506 9.403v-87.69l34.648-13.859c63.692-25.477 135.382-22.511 196.682 8.139 53.329 26.665 114.803 34.835 173.04 23.188l47.63-9.381v89.424z"/></svg>